# xmcd
#
# Track frame offsets: 
#        150
#        21687
#        42732
#        52485
#        68854
#        88882
#        106765
#        131222
#        144100
#        156275
#
# Disc length: 2412 seconds
#
# Revision: 0
# Processed by: cddbd v1.5.2PL0 Copyright (c) Steve Scherf et al.
# Submitted via: ExactAudioCopyFreeDBPlugin 1.0
#
DISCID=9b096a0a
DTITLE=Crosby and Nash - The Best of David Crosby and Graham Nash
DYEAR=1979
DGENRE=Country
TTITLE0=Love Work Out
TTITLE1=The Wall Song
TTITLE2=Wild Tales
TTITLE3=Carry Me
TTITLE4=Out Of The Darkness
TTITLE5=Southbound Train
TTITLE6=Laughing
TTITLE7=Chicago
TTITLE8=Bittersweet
TTITLE9=To The Last Whale
EXTD=
EXTT0=
EXTT1=
EXTT2=
EXTT3=
EXTT4=
EXTT5=
EXTT6=
EXTT7=
EXTT8=
EXTT9=
PLAYORDER=
